<?xml version="1.0" encoding="iso-8859-1"?>
<svg xmlns="http://www.w3.org/2000/svg" xmlns:xlink="http://www.w3.org/1999/xlink" version="1.1" viewBox="0 0 463 463" enable-background="new 0 0 463 463" width="512px" height="512px">
  <g>
    <path d="m372.96,335.135l-36.099-9.025c4.349-1.738 9.005-3.676 13.685-5.756 28.356-12.603 40.454-22.428 40.454-32.854 0-106.094-13.963-180.089-42.686-226.214-25.68-41.239-63.891-61.286-116.814-61.286s-91.134,20.047-116.814,61.286c-28.723,46.125-42.686,120.12-42.686,226.214 0,10.426 12.098,20.251 40.454,32.854 4.68,2.08 9.336,4.018 13.685,5.756l-36.099,9.025c-24.753,6.187-42.04,28.328-42.04,53.842v50.523c0,12.958 10.542,23.5 23.5,23.5h320c12.958,0 23.5-10.542 23.5-23.5v-50.523c0-25.514-17.287-47.655-42.04-53.842zm-205.82-3.814c14.049-3.512 23.86-16.079 23.86-30.56v-7.016c12.56,5.971 26.22,9.255 40.5,9.255 13.988,0 27.707-3.19 40.5-9.25v7.012c0,14.481 9.812,27.048 23.86,30.56l9.428,2.357c-18.438,22.597-45.948,47.976-73.788,57.899-27.84-9.924-55.35-35.303-73.788-57.899l9.428-2.358zm64.36-43.321c-53.21,0-96.5-54.056-96.5-120.5v-4.767c41.692-38.04 122.957-43.197 154.875-43.688 6.15,20.354 17.184,47.203 36.407,70.288-3.991,27.088-15.388,51.782-32.284,69.828-17.413,18.597-39.608,28.839-62.498,28.839zm-144.5-.795c0.026-103.045 13.248-174.357 40.419-217.99 23.033-36.988 56.105-54.215 104.081-54.215s81.048,17.227 104.081,54.214c27.171,43.633 40.393,114.945 40.419,217.99-0.447,0.984-4.403,7.605-33.535,20.318-13.31,5.808-26.386,10.463-31.296,12.164l-11.671-2.918c-7.358-1.84-12.498-8.422-12.498-16.008v-15.74c6.354-4.439 12.371-9.654 17.948-15.61 19.716-21.058 32.735-49.988 36.66-81.463 0.264-2.117-0.386-4.246-1.788-5.854-20.616-23.662-31.549-52.536-37.091-72.592-0.898-3.251-3.856-5.502-7.229-5.502-16.794,0-50.154,1.118-84.892,8.606-39.016,8.41-68.741,22.382-88.348,41.528-1.445,1.412-2.26,3.346-2.26,5.366v8c0,50.177 22.56,94.071 56,117.49v15.771c0,7.585-5.14,14.168-12.498,16.008l-11.671,2.918c-4.895-1.695-17.909-6.328-31.208-12.126-29.212-12.736-33.175-19.371-33.623-20.355zm313,152.295c0,4.687-3.813,8.5-8.5,8.5h-40.5v-36.915c0-4.142-3.358-7.5-7.5-7.5s-7.5,3.358-7.5,7.5v36.915h-209v-36.915c0-4.142-3.358-7.5-7.5-7.5s-7.5,3.358-7.5,7.5v36.915h-40.5c-4.687,0-8.5-3.813-8.5-8.5v-50.523c0-18.618 12.615-34.775 30.677-39.291l48.045-12.011c30.193,39.583 64.629,61.538 87.459,68.958 0.753,0.245 1.536,0.367 2.318,0.367s1.565-0.123 2.318-0.367c22.83-7.42 57.266-29.375 87.459-68.958l48.045,12.011c18.064,4.516 30.679,20.673 30.679,39.291v50.523z" fill="#933EC5"/>
  </g>
</svg>
