<?xml version="1.0" encoding="iso-8859-1"?>
<svg xmlns="http://www.w3.org/2000/svg" xmlns:xlink="http://www.w3.org/1999/xlink" version="1.1" viewBox="0 0 463 463" enable-background="new 0 0 463 463" width="512px" height="512px">
  <g>
    <path d="m372.96,351.134l-13.459-3.365 23.445-195.375c0.036-0.297 0.053-0.595 0.053-0.894 0.001-83.537-67.961-151.5-151.499-151.5s-151.5,67.963-151.5,151.5c0,0.299 0.018,0.597 0.053,0.894l23.445,195.375-13.459,3.365c-24.752,6.188-42.039,28.329-42.039,53.844v34.522c0,12.958 10.542,23.5 23.5,23.5h320c12.958,0 23.5-10.542 23.5-23.5v-34.522c0-25.515-17.287-47.656-42.04-53.844zm-277.96-200.076c0.239-75.065 61.381-136.058 136.5-136.058s136.261,60.993 136.5,136.058l-23.166,193.044-39.276-9.819c-10.927-2.731-18.558-12.505-18.558-23.767v-1.525c33.44-23.419 56-67.313 56-117.49 0-2.116-0.131-29.276-0.308-32.421-0.223-3.972-3.509-7.079-7.488-7.079-76.71,0-139.132-24.5-163.922-38.977-3.578-2.088-8.169-0.883-10.259,2.694-2.089,3.577-0.882,8.17 2.694,10.259 31.337,18.3 92.546,39.567 164.117,40.952 0.054,5.062 0.102,11.842 0.132,17.071h-22.823c-6.356-9.63-17.267-16-29.644-16-12.636,0-23.744,6.642-30.036,16.612-3.907-2.896-8.738-4.612-13.964-4.612s-10.057,1.716-13.964,4.612c-6.292-9.97-17.4-16.612-30.036-16.612-12.376,0-23.288,6.37-29.644,16h-21.761c2.299-8.051 8.051-15.936 15.37-25.949 1.979-2.708 4.026-5.508 6.156-8.516 2.394-3.381 1.593-8.062-1.788-10.455s-8.062-1.594-10.455,1.787c-2.064,2.915-4.077,5.669-6.023,8.331-10.812,14.793-19.354,26.479-19.354,42.302 0,50.177 22.56,94.071 56,117.49v1.525c0,11.263-7.631,21.036-18.558,23.768l-39.276,9.819-23.166-193.044zm157.059,221.075c-4.013-7.228-11.722-12.133-20.559-12.133-8.833,0-16.54,4.901-20.554,12.124-14.981-5.825-26.73-17.688-32.375-32.832 6.106-5.743 10.315-13.366 11.816-21.839 12.728,6.157 26.6,9.547 41.112,9.547s28.385-3.39 41.112-9.547c1.501,8.474 5.71,16.098 11.818,21.841-5.622,14.997-17.541,27.018-32.37,32.839zm-12.059,11.367c0,4.687-3.813,8.5-8.5,8.5s-8.5-3.813-8.5-8.5 3.813-8.5 8.5-8.5 8.5,3.813 8.5,8.5zm-52.5-200.5c11.304,0 20.5,9.196 20.5,20.5s-9.196,20.5-20.5,20.5-20.5-9.196-20.5-20.5 9.196-20.5 20.5-20.5zm0,56c19.575,0 35.5-15.925 35.5-35.5 0-4.687 3.813-8.5 8.5-8.5s8.5,3.813 8.5,8.5c0,19.575 15.925,35.5 35.5,35.5s35.5-15.925 35.5-35.5c0-1.525-0.108-3.025-0.295-4.5h17.103c-3.112,62.963-45.115,113-96.308,113s-93.195-50.037-96.308-113h17.103c-0.188,1.475-0.295,2.975-0.295,4.5-2.84217e-14,19.575 15.925,35.5 35.5,35.5zm67.5-35.5c0-11.304 9.196-20.5 20.5-20.5s20.5,9.196 20.5,20.5-9.196,20.5-20.5,20.5-20.5-9.196-20.5-20.5zm-192,236v-34.522c0-11.668 4.955-22.368 13.099-29.843l30.222,36.267c3.662,4.394 5.679,9.964 5.679,15.685v20.913h-40.5c-4.687,0-8.5-3.813-8.5-8.5zm64,8.5v-20.914c0-9.223-3.251-18.203-9.155-25.288l-28.858-34.63c1.518-0.581 3.081-1.079 4.691-1.481l30.263-7.565c13.484,13.443 21.597,29.699 29.435,45.442 8.122,16.314 16.405,32.934 30.579,44.437h-56.955zm183.682-63.195c-3.684-1.865-8.182-0.396-10.064,3.277-1.511,2.949-2.974,5.889-4.421,8.795-14.219,28.562-25.45,51.122-64.697,51.122s-50.478-22.56-64.697-51.122c-6.886-13.831-14.554-29.196-26.278-42.903l20.556-5.139c1.566-0.391 3.087-0.876 4.564-1.441 7.897,18.719 23.315,33.137 42.639,39.745 1.754,11.235 11.496,19.86 23.216,19.86 11.724,0 21.469-8.63 23.219-19.87 19.093-6.579 34.727-21.177 42.626-39.739 1.48,0.566 3.005,1.053 4.575,1.445l20.532,5.133c-2.46,2.873-4.832,5.923-7.15,9.198-2.392,3.381-1.591,8.062 1.791,10.454 1.315,0.932 2.828,1.379 4.326,1.379 2.352,0 4.667-1.104 6.129-3.169 3.643-5.149 7.419-9.647 11.499-13.714l30.276,7.569c1.609,0.402 3.173,0.901 4.691,1.481l-28.858,34.63c-5.904,7.085-9.155,16.065-9.155,25.288v20.915h-56.953c14.174-11.503 22.456-28.122 30.578-44.437 1.422-2.856 2.86-5.744 4.381-8.716 1.845-3.692 0.358-8.177-3.325-10.041zm89.318,54.694c0,4.687-3.813,8.5-8.5,8.5h-40.5v-20.914c0-5.721 2.017-11.291 5.679-15.685l30.222-36.267c8.144,7.476 13.099,18.176 13.099,29.844v34.522z" fill="#933EC5"/>
    <path d="m205.421,269.843c8.362,5.991 18.171,9.157 28.368,9.157s20.006-3.166 28.368-9.157c3.367-2.412 4.142-7.098 1.729-10.465s-7.098-4.143-10.464-1.729c-5.799,4.154-12.588,6.351-19.632,6.351s-13.833-2.196-19.632-6.351c-3.366-2.413-8.052-1.638-10.464,1.729-2.415,3.367-1.64,8.053 1.727,10.465z" fill="#933EC5"/>
    <path d="m291.218,65.79c14.889,10.407 26.878,24.544 34.671,40.882 1.287,2.697 3.974,4.273 6.775,4.273 1.082,0 2.182-0.235 3.224-0.732 3.738-1.783 5.324-6.26 3.541-9.998-8.907-18.675-22.606-34.83-39.616-46.72-3.396-2.373-8.072-1.545-10.444,1.851-2.374,3.395-1.546,8.071 1.849,10.444z" fill="#933EC5"/>
    <path d="m246.434,48.063c5.036,0.724 10.059,1.827 14.929,3.282 0.716,0.214 1.438,0.315 2.149,0.315 3.229,0 6.212-2.103 7.184-5.355 1.185-3.969-1.071-8.147-5.041-9.333-5.575-1.665-11.325-2.929-17.088-3.757-4.103-0.592-7.901,2.257-8.49,6.357-0.59,4.102 2.256,7.903 6.357,8.491z" fill="#933EC5"/>
  </g>
</svg>
